<mxfile host="app.diagrams.net" modified="2023-09-23T16:35:19.155Z" agent="Mozilla/5.0 (Windows NT 10.0; Win64; x64) AppleWebKit/537.36 (KHTML, like Gecko) Chrome/117.0.0.0 Safari/537.36 Edg/117.0.2045.36" etag="OevcyQpqaoXFQmuc8OER" version="21.8.1" type="github">
  <diagram name="Seite-1" id="2Pnt4BpfulIpVQop6G8H">
    <mxGraphModel dx="4065" dy="1898" grid="1" gridSize="10" guides="1" tooltips="1" connect="1" arrows="1" fold="1" page="1" pageScale="1" pageWidth="827" pageHeight="1169" math="0" shadow="0">
      <root>
        <mxCell id="0" />
        <mxCell id="1" parent="0" />
        <mxCell id="GG09bQPDJOTjV2dfAbOx-1" value="Reservierung" style="swimlane;fontStyle=1;align=center;verticalAlign=top;childLayout=stackLayout;horizontal=1;startSize=40;horizontalStack=0;resizeParent=1;resizeParentMax=0;resizeLast=0;collapsible=1;marginBottom=0;" parent="1" vertex="1">
          <mxGeometry x="1621" y="1400" width="200" height="230" as="geometry" />
        </mxCell>
        <mxCell id="GG09bQPDJOTjV2dfAbOx-2" value="- datum: Date&#xa;" style="text;strokeColor=none;fillColor=none;align=left;verticalAlign=top;spacingLeft=4;spacingRight=4;overflow=hidden;rotatable=0;points=[[0,0.5],[1,0.5]];portConstraint=eastwest;" parent="GG09bQPDJOTjV2dfAbOx-1" vertex="1">
          <mxGeometry y="40" width="200" height="26" as="geometry" />
        </mxCell>
        <mxCell id="kT-lGZq59A2PqVAVqNMU-1" value="- int: Stunde" style="text;strokeColor=none;fillColor=none;align=left;verticalAlign=top;spacingLeft=4;spacingRight=4;overflow=hidden;rotatable=0;points=[[0,0.5],[1,0.5]];portConstraint=eastwest;" parent="GG09bQPDJOTjV2dfAbOx-1" vertex="1">
          <mxGeometry y="66" width="200" height="26" as="geometry" />
        </mxCell>
        <mxCell id="GG09bQPDJOTjV2dfAbOx-3" value="- name: String" style="text;strokeColor=none;fillColor=none;align=left;verticalAlign=top;spacingLeft=4;spacingRight=4;overflow=hidden;rotatable=0;points=[[0,0.5],[1,0.5]];portConstraint=eastwest;" parent="GG09bQPDJOTjV2dfAbOx-1" vertex="1">
          <mxGeometry y="92" width="200" height="26" as="geometry" />
        </mxCell>
        <mxCell id="GG09bQPDJOTjV2dfAbOx-4" value="- koffernummer: Koffer" style="text;strokeColor=none;fillColor=none;align=left;verticalAlign=top;spacingLeft=4;spacingRight=4;overflow=hidden;rotatable=0;points=[[0,0.5],[1,0.5]];portConstraint=eastwest;" parent="GG09bQPDJOTjV2dfAbOx-1" vertex="1">
          <mxGeometry y="118" width="200" height="26" as="geometry" />
        </mxCell>
        <mxCell id="GG09bQPDJOTjV2dfAbOx-5" value="" style="line;strokeWidth=1;fillColor=none;align=left;verticalAlign=middle;spacingTop=-1;spacingLeft=3;spacingRight=3;rotatable=0;labelPosition=right;points=[];portConstraint=eastwest;strokeColor=inherit;" parent="GG09bQPDJOTjV2dfAbOx-1" vertex="1">
          <mxGeometry y="144" width="200" height="8" as="geometry" />
        </mxCell>
        <mxCell id="GG09bQPDJOTjV2dfAbOx-6" value="+ gibDatum(): Date" style="text;strokeColor=none;fillColor=none;align=left;verticalAlign=top;spacingLeft=4;spacingRight=4;overflow=hidden;rotatable=0;points=[[0,0.5],[1,0.5]];portConstraint=eastwest;" parent="GG09bQPDJOTjV2dfAbOx-1" vertex="1">
          <mxGeometry y="152" width="200" height="26" as="geometry" />
        </mxCell>
        <mxCell id="KlfiDYNAokehNlhyUkAq-2" value="+ gibName(): String" style="text;strokeColor=none;fillColor=none;align=left;verticalAlign=top;spacingLeft=4;spacingRight=4;overflow=hidden;rotatable=0;points=[[0,0.5],[1,0.5]];portConstraint=eastwest;" parent="GG09bQPDJOTjV2dfAbOx-1" vertex="1">
          <mxGeometry y="178" width="200" height="26" as="geometry" />
        </mxCell>
        <mxCell id="KlfiDYNAokehNlhyUkAq-3" value="+ gibKoffer(): Koffer" style="text;strokeColor=none;fillColor=none;align=left;verticalAlign=top;spacingLeft=4;spacingRight=4;overflow=hidden;rotatable=0;points=[[0,0.5],[1,0.5]];portConstraint=eastwest;" parent="GG09bQPDJOTjV2dfAbOx-1" vertex="1">
          <mxGeometry y="204" width="200" height="26" as="geometry" />
        </mxCell>
        <mxCell id="GG09bQPDJOTjV2dfAbOx-7" value="Reservierungsliste" style="swimlane;fontStyle=1;align=center;verticalAlign=top;childLayout=stackLayout;horizontal=1;startSize=26;horizontalStack=0;resizeParent=1;resizeParentMax=0;resizeLast=0;collapsible=1;marginBottom=0;" parent="1" vertex="1">
          <mxGeometry x="1841" y="440" width="520" height="346" as="geometry" />
        </mxCell>
        <mxCell id="GG09bQPDJOTjV2dfAbOx-8" value="+ kofferliste: Koffer[]" style="text;strokeColor=none;fillColor=none;align=left;verticalAlign=top;spacingLeft=4;spacingRight=4;overflow=hidden;rotatable=0;points=[[0,0.5],[1,0.5]];portConstraint=eastwest;" parent="GG09bQPDJOTjV2dfAbOx-7" vertex="1">
          <mxGeometry y="26" width="520" height="26" as="geometry" />
        </mxCell>
        <mxCell id="srKQBvNYtge3SuWGFt8Q-2" value="- speicherArray: Array[]" style="text;strokeColor=none;fillColor=none;align=left;verticalAlign=top;spacingLeft=4;spacingRight=4;overflow=hidden;rotatable=0;points=[[0,0.5],[1,0.5]];portConstraint=eastwest;" parent="GG09bQPDJOTjV2dfAbOx-7" vertex="1">
          <mxGeometry y="52" width="520" height="26" as="geometry" />
        </mxCell>
        <mxCell id="srKQBvNYtge3SuWGFt8Q-1" value="+ gewaehltes Datum: String[]" style="text;strokeColor=none;fillColor=none;align=left;verticalAlign=top;spacingLeft=4;spacingRight=4;overflow=hidden;rotatable=0;points=[[0,0.5],[1,0.5]];portConstraint=eastwest;" parent="GG09bQPDJOTjV2dfAbOx-7" vertex="1">
          <mxGeometry y="78" width="520" height="26" as="geometry" />
        </mxCell>
        <mxCell id="GG09bQPDJOTjV2dfAbOx-9" value="" style="line;strokeWidth=1;fillColor=none;align=left;verticalAlign=middle;spacingTop=-1;spacingLeft=3;spacingRight=3;rotatable=0;labelPosition=right;points=[];portConstraint=eastwest;strokeColor=inherit;" parent="GG09bQPDJOTjV2dfAbOx-7" vertex="1">
          <mxGeometry y="104" width="520" height="8" as="geometry" />
        </mxCell>
        <mxCell id="GG09bQPDJOTjV2dfAbOx-10" value="+ reservieren(LocalDate datum, int Stunde, String name, Koffer koffer): void" style="text;strokeColor=none;fillColor=none;align=left;verticalAlign=top;spacingLeft=4;spacingRight=4;overflow=hidden;rotatable=0;points=[[0,0.5],[1,0.5]];portConstraint=eastwest;" parent="GG09bQPDJOTjV2dfAbOx-7" vertex="1">
          <mxGeometry y="112" width="520" height="26" as="geometry" />
        </mxCell>
        <mxCell id="GG09bQPDJOTjV2dfAbOx-11" value="+ stonieren(LocalDate datum, int Stunde, Koffer koffer): void" style="text;strokeColor=none;fillColor=none;align=left;verticalAlign=top;spacingLeft=4;spacingRight=4;overflow=hidden;rotatable=0;points=[[0,0.5],[1,0.5]];portConstraint=eastwest;" parent="GG09bQPDJOTjV2dfAbOx-7" vertex="1">
          <mxGeometry y="138" width="520" height="26" as="geometry" />
        </mxCell>
        <mxCell id="DYJYWBsRvA1DzsSXrWgL-1" value="+ istReserviert(LocalDate datum, int Stunde, Koffer koffer): boolean" style="text;strokeColor=none;fillColor=none;align=left;verticalAlign=top;spacingLeft=4;spacingRight=4;overflow=hidden;rotatable=0;points=[[0,0.5],[1,0.5]];portConstraint=eastwest;" parent="GG09bQPDJOTjV2dfAbOx-7" vertex="1">
          <mxGeometry y="164" width="520" height="26" as="geometry" />
        </mxCell>
        <mxCell id="srKQBvNYtge3SuWGFt8Q-3" value="+ alleReservierungenAusgeben(): void" style="text;strokeColor=none;fillColor=none;align=left;verticalAlign=top;spacingLeft=4;spacingRight=4;overflow=hidden;rotatable=0;points=[[0,0.5],[1,0.5]];portConstraint=eastwest;" parent="GG09bQPDJOTjV2dfAbOx-7" vertex="1">
          <mxGeometry y="190" width="520" height="26" as="geometry" />
        </mxCell>
        <mxCell id="6dYusDWklably0Wr-_sq-58" value="+ reservierungenBenutzerAnzeigen(String name): Reservierung[]" style="text;strokeColor=none;fillColor=none;align=left;verticalAlign=top;spacingLeft=4;spacingRight=4;overflow=hidden;rotatable=0;points=[[0,0.5],[1,0.5]];portConstraint=eastwest;" parent="GG09bQPDJOTjV2dfAbOx-7" vertex="1">
          <mxGeometry y="216" width="520" height="26" as="geometry" />
        </mxCell>
        <mxCell id="hLVEEf-DrDABM8D7n_xX-1" value="+ neuerKoffer(int nummer): void" style="text;strokeColor=none;fillColor=none;align=left;verticalAlign=top;spacingLeft=4;spacingRight=4;overflow=hidden;rotatable=0;points=[[0,0.5],[1,0.5]];portConstraint=eastwest;" parent="GG09bQPDJOTjV2dfAbOx-7" vertex="1">
          <mxGeometry y="242" width="520" height="26" as="geometry" />
        </mxCell>
        <mxCell id="hLVEEf-DrDABM8D7n_xX-3" value="+ kofferEntfernen(int nummer): boolean" style="text;strokeColor=none;fillColor=none;align=left;verticalAlign=top;spacingLeft=4;spacingRight=4;overflow=hidden;rotatable=0;points=[[0,0.5],[1,0.5]];portConstraint=eastwest;" parent="GG09bQPDJOTjV2dfAbOx-7" vertex="1">
          <mxGeometry y="268" width="520" height="26" as="geometry" />
        </mxCell>
        <mxCell id="hLVEEf-DrDABM8D7n_xX-2" value="+ kofferAnzeigen(): void" style="text;strokeColor=none;fillColor=none;align=left;verticalAlign=top;spacingLeft=4;spacingRight=4;overflow=hidden;rotatable=0;points=[[0,0.5],[1,0.5]];portConstraint=eastwest;" parent="GG09bQPDJOTjV2dfAbOx-7" vertex="1">
          <mxGeometry y="294" width="520" height="26" as="geometry" />
        </mxCell>
        <mxCell id="wRzsIxWEd2h5d38toLy1-11" value="+ speichern(): void" style="text;strokeColor=none;fillColor=none;align=left;verticalAlign=top;spacingLeft=4;spacingRight=4;overflow=hidden;rotatable=0;points=[[0,0.5],[1,0.5]];portConstraint=eastwest;" parent="GG09bQPDJOTjV2dfAbOx-7" vertex="1">
          <mxGeometry y="320" width="520" height="26" as="geometry" />
        </mxCell>
        <mxCell id="GG09bQPDJOTjV2dfAbOx-12" style="edgeStyle=orthogonalEdgeStyle;rounded=0;orthogonalLoop=1;jettySize=auto;html=1;exitX=0.5;exitY=0;exitDx=0;exitDy=0;entryX=0.5;entryY=1;entryDx=0;entryDy=0;endArrow=diamond;endFill=0;endSize=16;" parent="1" source="GG09bQPDJOTjV2dfAbOx-1" target="GG09bQPDJOTjV2dfAbOx-13" edge="1">
          <mxGeometry relative="1" as="geometry" />
        </mxCell>
        <mxCell id="GG09bQPDJOTjV2dfAbOx-13" value="Datenknoten" style="swimlane;fontStyle=1;align=center;verticalAlign=top;childLayout=stackLayout;horizontal=1;startSize=40;horizontalStack=0;resizeParent=1;resizeParentMax=0;resizeLast=0;collapsible=1;marginBottom=0;" parent="1" vertex="1">
          <mxGeometry x="1641" y="1199" width="160" height="72" as="geometry" />
        </mxCell>
        <mxCell id="GG09bQPDJOTjV2dfAbOx-15" value="" style="line;strokeWidth=1;fillColor=none;align=left;verticalAlign=middle;spacingTop=-1;spacingLeft=3;spacingRight=3;rotatable=0;labelPosition=right;points=[];portConstraint=eastwest;strokeColor=inherit;" parent="GG09bQPDJOTjV2dfAbOx-13" vertex="1">
          <mxGeometry y="40" width="160" height="6" as="geometry" />
        </mxCell>
        <mxCell id="wRzsIxWEd2h5d38toLy1-22" value="+ speichern(): void" style="text;strokeColor=none;fillColor=none;align=left;verticalAlign=top;spacingLeft=4;spacingRight=4;overflow=hidden;rotatable=0;points=[[0,0.5],[1,0.5]];portConstraint=eastwest;" parent="GG09bQPDJOTjV2dfAbOx-13" vertex="1">
          <mxGeometry y="46" width="160" height="26" as="geometry" />
        </mxCell>
        <mxCell id="GG09bQPDJOTjV2dfAbOx-18" value="1" style="text;html=1;align=center;verticalAlign=middle;resizable=0;points=[];autosize=1;strokeColor=none;fillColor=none;" parent="1" vertex="1">
          <mxGeometry x="1401" y="230" width="30" height="30" as="geometry" />
        </mxCell>
        <mxCell id="GG09bQPDJOTjV2dfAbOx-19" value="naechster &amp;gt;" style="text;html=1;align=center;verticalAlign=middle;resizable=0;points=[];autosize=1;strokeColor=none;fillColor=none;" parent="1" vertex="1">
          <mxGeometry x="1861" y="1260" width="90" height="30" as="geometry" />
        </mxCell>
        <mxCell id="GG09bQPDJOTjV2dfAbOx-20" value="Endknoten" style="swimlane;fontStyle=1;align=center;verticalAlign=top;childLayout=stackLayout;horizontal=1;startSize=40;horizontalStack=0;resizeParent=1;resizeParentMax=0;resizeLast=0;collapsible=1;marginBottom=0;" parent="1" vertex="1">
          <mxGeometry x="1641" y="1000" width="160" height="48" as="geometry" />
        </mxCell>
        <mxCell id="GG09bQPDJOTjV2dfAbOx-22" value="" style="line;strokeWidth=1;fillColor=none;align=left;verticalAlign=middle;spacingTop=-1;spacingLeft=3;spacingRight=3;rotatable=0;labelPosition=right;points=[];portConstraint=eastwest;strokeColor=inherit;" parent="GG09bQPDJOTjV2dfAbOx-20" vertex="1">
          <mxGeometry y="40" width="160" height="8" as="geometry" />
        </mxCell>
        <mxCell id="GG09bQPDJOTjV2dfAbOx-24" value="&lt;&lt;interface&gt;&gt;&#xa;Knoten" style="swimlane;fontStyle=1;align=center;verticalAlign=top;childLayout=stackLayout;horizontal=1;startSize=40;horizontalStack=0;resizeParent=1;resizeParentMax=0;resizeLast=0;collapsible=1;marginBottom=0;" parent="1" vertex="1">
          <mxGeometry x="1961" y="1000" width="310" height="230" as="geometry" />
        </mxCell>
        <mxCell id="GG09bQPDJOTjV2dfAbOx-26" value="" style="line;strokeWidth=1;fillColor=none;align=left;verticalAlign=middle;spacingTop=-1;spacingLeft=3;spacingRight=3;rotatable=0;labelPosition=right;points=[];portConstraint=eastwest;strokeColor=inherit;" parent="GG09bQPDJOTjV2dfAbOx-24" vertex="1">
          <mxGeometry y="40" width="310" height="8" as="geometry" />
        </mxCell>
        <mxCell id="GG09bQPDJOTjV2dfAbOx-27" value="+ reservieren(Reservierung inhalt): Knoten" style="text;strokeColor=none;fillColor=none;align=left;verticalAlign=top;spacingLeft=4;spacingRight=4;overflow=hidden;rotatable=0;points=[[0,0.5],[1,0.5]];portConstraint=eastwest;" parent="GG09bQPDJOTjV2dfAbOx-24" vertex="1">
          <mxGeometry y="48" width="310" height="26" as="geometry" />
        </mxCell>
        <mxCell id="hLVEEf-DrDABM8D7n_xX-4" value="+ stonieren(Date datum, int Stunde, Koffer koffer): void" style="text;strokeColor=none;fillColor=none;align=left;verticalAlign=top;spacingLeft=4;spacingRight=4;overflow=hidden;rotatable=0;points=[[0,0.5],[1,0.5]];portConstraint=eastwest;" parent="GG09bQPDJOTjV2dfAbOx-24" vertex="1">
          <mxGeometry y="74" width="310" height="26" as="geometry" />
        </mxCell>
        <mxCell id="hLVEEf-DrDABM8D7n_xX-5" value="+ gibData(): Reservierung" style="text;strokeColor=none;fillColor=none;align=left;verticalAlign=top;spacingLeft=4;spacingRight=4;overflow=hidden;rotatable=0;points=[[0,0.5],[1,0.5]];portConstraint=eastwest;" parent="GG09bQPDJOTjV2dfAbOx-24" vertex="1">
          <mxGeometry y="100" width="310" height="26" as="geometry" />
        </mxCell>
        <mxCell id="hLVEEf-DrDABM8D7n_xX-6" value="+ gibNaechster(): Knoten" style="text;strokeColor=none;fillColor=none;align=left;verticalAlign=top;spacingLeft=4;spacingRight=4;overflow=hidden;rotatable=0;points=[[0,0.5],[1,0.5]];portConstraint=eastwest;" parent="GG09bQPDJOTjV2dfAbOx-24" vertex="1">
          <mxGeometry y="126" width="310" height="26" as="geometry" />
        </mxCell>
        <mxCell id="srKQBvNYtge3SuWGFt8Q-4" value="+ istReserviert(LocalDate datum, Koffer koffer): boolean" style="text;strokeColor=none;fillColor=none;align=left;verticalAlign=top;spacingLeft=4;spacingRight=4;overflow=hidden;rotatable=0;points=[[0,0.5],[1,0.5]];portConstraint=eastwest;" parent="GG09bQPDJOTjV2dfAbOx-24" vertex="1">
          <mxGeometry y="152" width="310" height="26" as="geometry" />
        </mxCell>
        <mxCell id="srKQBvNYtge3SuWGFt8Q-5" value="+ alleReservierungenAusgeben(int i): void" style="text;strokeColor=none;fillColor=none;align=left;verticalAlign=top;spacingLeft=4;spacingRight=4;overflow=hidden;rotatable=0;points=[[0,0.5],[1,0.5]];portConstraint=eastwest;" parent="GG09bQPDJOTjV2dfAbOx-24" vertex="1">
          <mxGeometry y="178" width="310" height="26" as="geometry" />
        </mxCell>
        <mxCell id="6dYusDWklably0Wr-_sq-65" value="+ reservierungenBenutzerAnzeigen(String name): int" style="text;strokeColor=none;fillColor=none;align=left;verticalAlign=top;spacingLeft=4;spacingRight=4;overflow=hidden;rotatable=0;points=[[0,0.5],[1,0.5]];portConstraint=eastwest;" parent="GG09bQPDJOTjV2dfAbOx-24" vertex="1">
          <mxGeometry y="204" width="310" height="26" as="geometry" />
        </mxCell>
        <mxCell id="GG09bQPDJOTjV2dfAbOx-28" value="" style="endArrow=block;endSize=16;endFill=0;html=1;rounded=0;dashed=1;entryX=-0.005;entryY=0.107;entryDx=0;entryDy=0;entryPerimeter=0;exitX=1;exitY=0.5;exitDx=0;exitDy=0;" parent="1" source="GG09bQPDJOTjV2dfAbOx-20" target="GG09bQPDJOTjV2dfAbOx-24" edge="1">
          <mxGeometry width="160" relative="1" as="geometry">
            <mxPoint x="1731" y="1031" as="sourcePoint" />
            <mxPoint x="1281" y="499.9999999999999" as="targetPoint" />
          </mxGeometry>
        </mxCell>
        <mxCell id="GG09bQPDJOTjV2dfAbOx-29" value="" style="endArrow=block;endSize=16;endFill=0;html=1;rounded=0;exitX=0.75;exitY=0;exitDx=0;exitDy=0;dashed=1;" parent="1" source="GG09bQPDJOTjV2dfAbOx-13" target="GG09bQPDJOTjV2dfAbOx-24" edge="1">
          <mxGeometry width="160" relative="1" as="geometry">
            <mxPoint x="1301" y="570" as="sourcePoint" />
            <mxPoint x="1378.7599999999998" y="492.00199999999995" as="targetPoint" />
            <Array as="points">
              <mxPoint x="1761" y="1120" />
            </Array>
          </mxGeometry>
        </mxCell>
        <mxCell id="GG09bQPDJOTjV2dfAbOx-30" value="root &amp;gt;" style="text;html=1;align=center;verticalAlign=middle;resizable=0;points=[];autosize=1;strokeColor=none;fillColor=none;rotation=90;" parent="1" vertex="1">
          <mxGeometry x="2111" y="880" width="50" height="30" as="geometry" />
        </mxCell>
        <mxCell id="GG09bQPDJOTjV2dfAbOx-31" value="1" style="text;html=1;align=center;verticalAlign=middle;resizable=0;points=[];autosize=1;strokeColor=none;fillColor=none;" parent="1" vertex="1">
          <mxGeometry x="2121" y="790" width="30" height="30" as="geometry" />
        </mxCell>
        <mxCell id="GG09bQPDJOTjV2dfAbOx-32" value="data &amp;gt;" style="text;html=1;align=center;verticalAlign=middle;resizable=0;points=[];autosize=1;strokeColor=none;fillColor=none;rotation=90;" parent="1" vertex="1">
          <mxGeometry x="1706" y="1320" width="60" height="30" as="geometry" />
        </mxCell>
        <mxCell id="GG09bQPDJOTjV2dfAbOx-33" value="1" style="text;html=1;align=center;verticalAlign=middle;resizable=0;points=[];autosize=1;strokeColor=none;fillColor=none;" parent="1" vertex="1">
          <mxGeometry x="1721" y="1370" width="30" height="30" as="geometry" />
        </mxCell>
        <mxCell id="GG09bQPDJOTjV2dfAbOx-34" value="Koffer" style="swimlane;fontStyle=1;align=center;verticalAlign=top;childLayout=stackLayout;horizontal=1;startSize=40;horizontalStack=0;resizeParent=1;resizeParentMax=0;resizeLast=0;collapsible=1;marginBottom=0;" parent="1" vertex="1">
          <mxGeometry x="1971" y="1520" width="160" height="130" as="geometry" />
        </mxCell>
        <mxCell id="GG09bQPDJOTjV2dfAbOx-35" value="- nummer: int" style="text;strokeColor=none;fillColor=none;align=left;verticalAlign=top;spacingLeft=4;spacingRight=4;overflow=hidden;rotatable=0;points=[[0,0.5],[1,0.5]];portConstraint=eastwest;" parent="GG09bQPDJOTjV2dfAbOx-34" vertex="1">
          <mxGeometry y="40" width="160" height="26" as="geometry" />
        </mxCell>
        <mxCell id="GG09bQPDJOTjV2dfAbOx-36" value="" style="line;strokeWidth=1;fillColor=none;align=left;verticalAlign=middle;spacingTop=-1;spacingLeft=3;spacingRight=3;rotatable=0;labelPosition=right;points=[];portConstraint=eastwest;strokeColor=inherit;" parent="GG09bQPDJOTjV2dfAbOx-34" vertex="1">
          <mxGeometry y="66" width="160" height="12" as="geometry" />
        </mxCell>
        <mxCell id="-Z-XoY6Hy67f1oEPYJGS-16" value="+ gibNummer(): int" style="text;strokeColor=none;fillColor=none;align=left;verticalAlign=top;spacingLeft=4;spacingRight=4;overflow=hidden;rotatable=0;points=[[0,0.5],[1,0.5]];portConstraint=eastwest;" vertex="1" parent="GG09bQPDJOTjV2dfAbOx-34">
          <mxGeometry y="78" width="160" height="26" as="geometry" />
        </mxCell>
        <mxCell id="wRzsIxWEd2h5d38toLy1-21" value="+ gibNummer(): int" style="text;strokeColor=none;fillColor=none;align=left;verticalAlign=top;spacingLeft=4;spacingRight=4;overflow=hidden;rotatable=0;points=[[0,0.5],[1,0.5]];portConstraint=eastwest;" parent="GG09bQPDJOTjV2dfAbOx-34" vertex="1">
          <mxGeometry y="104" width="160" height="26" as="geometry" />
        </mxCell>
        <mxCell id="GG09bQPDJOTjV2dfAbOx-39" value="1" style="text;html=1;align=center;verticalAlign=middle;resizable=0;points=[];autosize=1;strokeColor=none;fillColor=none;" parent="1" vertex="1">
          <mxGeometry x="2121" y="970" width="30" height="30" as="geometry" />
        </mxCell>
        <mxCell id="hLVEEf-DrDABM8D7n_xX-11" value="1" style="text;html=1;align=center;verticalAlign=middle;resizable=0;points=[];autosize=1;strokeColor=none;fillColor=none;" parent="1" vertex="1">
          <mxGeometry x="1891" y="390" width="30" height="30" as="geometry" />
        </mxCell>
        <mxCell id="hLVEEf-DrDABM8D7n_xX-12" value="" style="endArrow=diamond;endSize=12;html=1;rounded=0;endFill=0;exitX=0;exitY=0.5;exitDx=0;exitDy=0;entryX=1.005;entryY=0.784;entryDx=0;entryDy=0;entryPerimeter=0;" parent="1" source="GG09bQPDJOTjV2dfAbOx-35" target="GG09bQPDJOTjV2dfAbOx-6" edge="1">
          <mxGeometry width="160" relative="1" as="geometry">
            <mxPoint x="1191" y="887" as="sourcePoint" />
            <mxPoint x="1421" y="928" as="targetPoint" />
          </mxGeometry>
        </mxCell>
        <mxCell id="hLVEEf-DrDABM8D7n_xX-13" value="" style="endArrow=diamond;endSize=12;html=1;rounded=0;endFill=0;exitX=1;exitY=0.5;exitDx=0;exitDy=0;entryX=0.925;entryY=0.974;entryDx=0;entryDy=0;entryPerimeter=0;" parent="1" source="GG09bQPDJOTjV2dfAbOx-35" target="wRzsIxWEd2h5d38toLy1-11" edge="1">
          <mxGeometry width="160" relative="1" as="geometry">
            <mxPoint x="1091" y="872.66" as="sourcePoint" />
            <mxPoint x="2231" y="840" as="targetPoint" />
            <Array as="points">
              <mxPoint x="2321" y="1573" />
              <mxPoint x="2321" y="1290" />
            </Array>
          </mxGeometry>
        </mxCell>
        <mxCell id="wRzsIxWEd2h5d38toLy1-1" value="KompositumSerializer" style="swimlane;fontStyle=1;align=center;verticalAlign=top;childLayout=stackLayout;horizontal=1;startSize=26;horizontalStack=0;resizeParent=1;resizeParentMax=0;resizeLast=0;collapsible=1;marginBottom=0;whiteSpace=wrap;html=1;" parent="1" vertex="1">
          <mxGeometry x="1361" y="640" width="240" height="78" as="geometry" />
        </mxCell>
        <mxCell id="wRzsIxWEd2h5d38toLy1-2" value="+ speichern(Reservierungsliste l): void" style="text;strokeColor=none;fillColor=none;align=left;verticalAlign=top;spacingLeft=4;spacingRight=4;overflow=hidden;rotatable=0;points=[[0,0.5],[1,0.5]];portConstraint=eastwest;whiteSpace=wrap;html=1;" parent="wRzsIxWEd2h5d38toLy1-1" vertex="1">
          <mxGeometry y="26" width="240" height="26" as="geometry" />
        </mxCell>
        <mxCell id="wRzsIxWEd2h5d38toLy1-3" value="+ laden(): Reservierungsliste" style="text;strokeColor=none;fillColor=none;align=left;verticalAlign=top;spacingLeft=4;spacingRight=4;overflow=hidden;rotatable=0;points=[[0,0.5],[1,0.5]];portConstraint=eastwest;whiteSpace=wrap;html=1;" parent="wRzsIxWEd2h5d38toLy1-1" vertex="1">
          <mxGeometry y="52" width="240" height="26" as="geometry" />
        </mxCell>
        <mxCell id="wRzsIxWEd2h5d38toLy1-4" value="«interface»&lt;br&gt;&lt;b&gt;Serializable&lt;/b&gt;" style="html=1;whiteSpace=wrap;" parent="1" vertex="1">
          <mxGeometry x="1181" y="936" width="110" height="50" as="geometry" />
        </mxCell>
        <mxCell id="wRzsIxWEd2h5d38toLy1-6" value="" style="endArrow=block;endSize=16;endFill=0;html=1;rounded=0;exitX=0.488;exitY=1.154;exitDx=0;exitDy=0;entryX=0.5;entryY=1;entryDx=0;entryDy=0;dashed=1;exitPerimeter=0;" parent="1" source="wRzsIxWEd2h5d38toLy1-21" target="wRzsIxWEd2h5d38toLy1-4" edge="1">
          <mxGeometry width="160" relative="1" as="geometry">
            <mxPoint x="1251" y="763" as="sourcePoint" />
            <mxPoint x="1151" y="615" as="targetPoint" />
            <Array as="points">
              <mxPoint x="2049" y="1680" />
              <mxPoint x="1241" y="1680" />
            </Array>
          </mxGeometry>
        </mxCell>
        <mxCell id="wRzsIxWEd2h5d38toLy1-8" value="" style="endArrow=block;endSize=16;endFill=0;html=1;rounded=0;exitX=0.5;exitY=0;exitDx=0;exitDy=0;dashed=1;" parent="1" source="GG09bQPDJOTjV2dfAbOx-13" edge="1">
          <mxGeometry width="160" relative="1" as="geometry">
            <mxPoint x="1489" y="678" as="sourcePoint" />
            <mxPoint x="1281" y="990" as="targetPoint" />
          </mxGeometry>
        </mxCell>
        <mxCell id="wRzsIxWEd2h5d38toLy1-9" value="" style="endArrow=block;endSize=16;endFill=0;html=1;rounded=0;entryX=0.938;entryY=-0.014;entryDx=0;entryDy=0;dashed=1;entryPerimeter=0;exitX=0.186;exitY=1.052;exitDx=0;exitDy=0;exitPerimeter=0;" parent="1" source="wRzsIxWEd2h5d38toLy1-3" target="wRzsIxWEd2h5d38toLy1-4" edge="1">
          <mxGeometry width="160" relative="1" as="geometry">
            <mxPoint x="1086" y="540" as="sourcePoint" />
            <mxPoint x="981" y="623" as="targetPoint" />
          </mxGeometry>
        </mxCell>
        <mxCell id="wRzsIxWEd2h5d38toLy1-10" value="" style="endArrow=block;endSize=16;endFill=0;html=1;rounded=0;exitX=0;exitY=0.25;exitDx=0;exitDy=0;entryX=1;entryY=0.5;entryDx=0;entryDy=0;dashed=1;" parent="1" source="GG09bQPDJOTjV2dfAbOx-20" target="wRzsIxWEd2h5d38toLy1-4" edge="1">
          <mxGeometry width="160" relative="1" as="geometry">
            <mxPoint x="1101" y="830" as="sourcePoint" />
            <mxPoint x="1096" y="640" as="targetPoint" />
          </mxGeometry>
        </mxCell>
        <mxCell id="wRzsIxWEd2h5d38toLy1-13" value="" style="endArrow=none;html=1;strokeWidth=1;rounded=0;exitX=-0.001;exitY=0.906;exitDx=0;exitDy=0;exitPerimeter=0;" parent="1" source="6dYusDWklably0Wr-_sq-58" edge="1">
          <mxGeometry width="50" height="50" relative="1" as="geometry">
            <mxPoint x="901" y="630" as="sourcePoint" />
            <mxPoint x="1601" y="680" as="targetPoint" />
          </mxGeometry>
        </mxCell>
        <mxCell id="HfCsK1fA1GeoR-2jATR1-1" value="Benutzerliste" style="swimlane;fontStyle=1;align=center;verticalAlign=top;childLayout=stackLayout;horizontal=1;startSize=26;horizontalStack=0;resizeParent=1;resizeParentMax=0;resizeLast=0;collapsible=1;marginBottom=0;" parent="1" vertex="1">
          <mxGeometry x="121" y="440" width="520" height="320" as="geometry" />
        </mxCell>
        <mxCell id="6dYusDWklably0Wr-_sq-12" value="- angemeldeterBenutzer: Benutzer" style="text;strokeColor=none;fillColor=none;align=left;verticalAlign=top;spacingLeft=4;spacingRight=4;overflow=hidden;rotatable=0;points=[[0,0.5],[1,0.5]];portConstraint=eastwest;" parent="HfCsK1fA1GeoR-2jATR1-1" vertex="1">
          <mxGeometry y="26" width="520" height="26" as="geometry" />
        </mxCell>
        <mxCell id="HfCsK1fA1GeoR-2jATR1-3" value="" style="line;strokeWidth=1;fillColor=none;align=left;verticalAlign=middle;spacingTop=-1;spacingLeft=3;spacingRight=3;rotatable=0;labelPosition=right;points=[];portConstraint=eastwest;strokeColor=inherit;" parent="HfCsK1fA1GeoR-2jATR1-1" vertex="1">
          <mxGeometry y="52" width="520" height="8" as="geometry" />
        </mxCell>
        <mxCell id="HfCsK1fA1GeoR-2jATR1-4" value="+ benutzerAnmelden(String Benutzername, String passwort): void" style="text;strokeColor=none;fillColor=none;align=left;verticalAlign=top;spacingLeft=4;spacingRight=4;overflow=hidden;rotatable=0;points=[[0,0.5],[1,0.5]];portConstraint=eastwest;" parent="HfCsK1fA1GeoR-2jATR1-1" vertex="1">
          <mxGeometry y="60" width="520" height="26" as="geometry" />
        </mxCell>
        <mxCell id="6dYusDWklably0Wr-_sq-13" value="+ benutzerAbmelden(): void" style="text;strokeColor=none;fillColor=none;align=left;verticalAlign=top;spacingLeft=4;spacingRight=4;overflow=hidden;rotatable=0;points=[[0,0.5],[1,0.5]];portConstraint=eastwest;" parent="HfCsK1fA1GeoR-2jATR1-1" vertex="1">
          <mxGeometry y="86" width="520" height="26" as="geometry" />
        </mxCell>
        <mxCell id="6dYusDWklably0Wr-_sq-14" value="+ benutzerEinfuegen(String vorname, String name, String benutzername, String passwort): void" style="text;strokeColor=none;fillColor=none;align=left;verticalAlign=top;spacingLeft=4;spacingRight=4;overflow=hidden;rotatable=0;points=[[0,0.5],[1,0.5]];portConstraint=eastwest;" parent="HfCsK1fA1GeoR-2jATR1-1" vertex="1">
          <mxGeometry y="112" width="520" height="26" as="geometry" />
        </mxCell>
        <mxCell id="6dYusDWklably0Wr-_sq-15" value="+ benutzerloeschen(String benutzername): void" style="text;strokeColor=none;fillColor=none;align=left;verticalAlign=top;spacingLeft=4;spacingRight=4;overflow=hidden;rotatable=0;points=[[0,0.5],[1,0.5]];portConstraint=eastwest;" parent="HfCsK1fA1GeoR-2jATR1-1" vertex="1">
          <mxGeometry y="138" width="520" height="26" as="geometry" />
        </mxCell>
        <mxCell id="6dYusDWklably0Wr-_sq-16" value="+ benutzerPasswortAendern(String benutzer, String neuesPasswort): void" style="text;strokeColor=none;fillColor=none;align=left;verticalAlign=top;spacingLeft=4;spacingRight=4;overflow=hidden;rotatable=0;points=[[0,0.5],[1,0.5]];portConstraint=eastwest;" parent="HfCsK1fA1GeoR-2jATR1-1" vertex="1">
          <mxGeometry y="164" width="520" height="26" as="geometry" />
        </mxCell>
        <mxCell id="6dYusDWklably0Wr-_sq-17" value="+ benutzerlisteAusgeben(): void" style="text;strokeColor=none;fillColor=none;align=left;verticalAlign=top;spacingLeft=4;spacingRight=4;overflow=hidden;rotatable=0;points=[[0,0.5],[1,0.5]];portConstraint=eastwest;" parent="HfCsK1fA1GeoR-2jATR1-1" vertex="1">
          <mxGeometry y="190" width="520" height="26" as="geometry" />
        </mxCell>
        <mxCell id="6dYusDWklably0Wr-_sq-18" value="+ gibNameAngemelterBenutzer(): String" style="text;strokeColor=none;fillColor=none;align=left;verticalAlign=top;spacingLeft=4;spacingRight=4;overflow=hidden;rotatable=0;points=[[0,0.5],[1,0.5]];portConstraint=eastwest;" parent="HfCsK1fA1GeoR-2jATR1-1" vertex="1">
          <mxGeometry y="216" width="520" height="26" as="geometry" />
        </mxCell>
        <mxCell id="srKQBvNYtge3SuWGFt8Q-11" value="+ gibAngemelterBenutzer():Benutzer" style="text;strokeColor=none;fillColor=none;align=left;verticalAlign=top;spacingLeft=4;spacingRight=4;overflow=hidden;rotatable=0;points=[[0,0.5],[1,0.5]];portConstraint=eastwest;" parent="HfCsK1fA1GeoR-2jATR1-1" vertex="1">
          <mxGeometry y="242" width="520" height="26" as="geometry" />
        </mxCell>
        <mxCell id="6dYusDWklably0Wr-_sq-20" value="+ gibErster(): Node" style="text;strokeColor=none;fillColor=none;align=left;verticalAlign=top;spacingLeft=4;spacingRight=4;overflow=hidden;rotatable=0;points=[[0,0.5],[1,0.5]];portConstraint=eastwest;" parent="HfCsK1fA1GeoR-2jATR1-1" vertex="1">
          <mxGeometry y="268" width="520" height="26" as="geometry" />
        </mxCell>
        <mxCell id="6dYusDWklably0Wr-_sq-19" value="- speichern(): void" style="text;strokeColor=none;fillColor=none;align=left;verticalAlign=top;spacingLeft=4;spacingRight=4;overflow=hidden;rotatable=0;points=[[0,0.5],[1,0.5]];portConstraint=eastwest;" parent="HfCsK1fA1GeoR-2jATR1-1" vertex="1">
          <mxGeometry y="294" width="520" height="26" as="geometry" />
        </mxCell>
        <mxCell id="HfCsK1fA1GeoR-2jATR1-17" value="DataNode" style="swimlane;fontStyle=1;align=center;verticalAlign=top;childLayout=stackLayout;horizontal=1;startSize=40;horizontalStack=0;resizeParent=1;resizeParentMax=0;resizeLast=0;collapsible=1;marginBottom=0;" parent="1" vertex="1">
          <mxGeometry x="641" y="1199" width="160" height="50" as="geometry" />
        </mxCell>
        <mxCell id="6dYusDWklably0Wr-_sq-57" style="edgeStyle=orthogonalEdgeStyle;rounded=0;orthogonalLoop=1;jettySize=auto;html=1;exitX=0;exitY=0.5;exitDx=0;exitDy=0;entryX=0.997;entryY=0.131;entryDx=0;entryDy=0;entryPerimeter=0;endArrow=block;endFill=0;endSize=16;dashed=1;" parent="1" source="HfCsK1fA1GeoR-2jATR1-21" target="HfCsK1fA1GeoR-2jATR1-32" edge="1">
          <mxGeometry relative="1" as="geometry" />
        </mxCell>
        <mxCell id="HfCsK1fA1GeoR-2jATR1-21" value="EndNode" style="swimlane;fontStyle=1;align=center;verticalAlign=top;childLayout=stackLayout;horizontal=1;startSize=40;horizontalStack=0;resizeParent=1;resizeParentMax=0;resizeLast=0;collapsible=1;marginBottom=0;" parent="1" vertex="1">
          <mxGeometry x="641" y="1000" width="160" height="48" as="geometry" />
        </mxCell>
        <mxCell id="HfCsK1fA1GeoR-2jATR1-22" value="" style="line;strokeWidth=1;fillColor=none;align=left;verticalAlign=middle;spacingTop=-1;spacingLeft=3;spacingRight=3;rotatable=0;labelPosition=right;points=[];portConstraint=eastwest;strokeColor=inherit;" parent="HfCsK1fA1GeoR-2jATR1-21" vertex="1">
          <mxGeometry y="40" width="160" height="8" as="geometry" />
        </mxCell>
        <mxCell id="6dYusDWklably0Wr-_sq-28" style="edgeStyle=orthogonalEdgeStyle;rounded=0;orthogonalLoop=1;jettySize=auto;html=1;dashed=1;endArrow=block;endFill=0;endSize=16;entryX=0.25;entryY=1;entryDx=0;entryDy=0;exitX=1;exitY=0.5;exitDx=0;exitDy=0;" parent="1" target="wRzsIxWEd2h5d38toLy1-4" edge="1" source="6dYusDWklably0Wr-_sq-52">
          <mxGeometry relative="1" as="geometry">
            <mxPoint x="1221" y="1060" as="targetPoint" />
            <Array as="points">
              <mxPoint x="1209" y="1531" />
            </Array>
            <mxPoint x="621" y="1320" as="sourcePoint" />
          </mxGeometry>
        </mxCell>
        <mxCell id="6dYusDWklably0Wr-_sq-35" style="edgeStyle=orthogonalEdgeStyle;rounded=0;orthogonalLoop=1;jettySize=auto;html=1;endArrow=diamond;endFill=0;endSize=16;" parent="1" source="HfCsK1fA1GeoR-2jATR1-23" target="HfCsK1fA1GeoR-2jATR1-17" edge="1">
          <mxGeometry relative="1" as="geometry">
            <mxPoint x="733" y="1152" as="sourcePoint" />
            <Array as="points" />
          </mxGeometry>
        </mxCell>
        <mxCell id="HfCsK1fA1GeoR-2jATR1-23" value="Benutzer" style="swimlane;fontStyle=1;align=center;verticalAlign=top;childLayout=stackLayout;horizontal=1;startSize=40;horizontalStack=0;resizeParent=1;resizeParentMax=0;resizeLast=0;collapsible=1;marginBottom=0;" parent="1" vertex="1">
          <mxGeometry x="606" y="1400" width="230" height="308" as="geometry" />
        </mxCell>
        <mxCell id="HfCsK1fA1GeoR-2jATR1-24" value="- vorname: String" style="text;strokeColor=none;fillColor=none;align=left;verticalAlign=top;spacingLeft=4;spacingRight=4;overflow=hidden;rotatable=0;points=[[0,0.5],[1,0.5]];portConstraint=eastwest;" parent="HfCsK1fA1GeoR-2jATR1-23" vertex="1">
          <mxGeometry y="40" width="230" height="26" as="geometry" />
        </mxCell>
        <mxCell id="6dYusDWklably0Wr-_sq-50" value="- name: String" style="text;strokeColor=none;fillColor=none;align=left;verticalAlign=top;spacingLeft=4;spacingRight=4;overflow=hidden;rotatable=0;points=[[0,0.5],[1,0.5]];portConstraint=eastwest;" parent="HfCsK1fA1GeoR-2jATR1-23" vertex="1">
          <mxGeometry y="66" width="230" height="26" as="geometry" />
        </mxCell>
        <mxCell id="6dYusDWklably0Wr-_sq-51" value="- benutzername: String" style="text;strokeColor=none;fillColor=none;align=left;verticalAlign=top;spacingLeft=4;spacingRight=4;overflow=hidden;rotatable=0;points=[[0,0.5],[1,0.5]];portConstraint=eastwest;" parent="HfCsK1fA1GeoR-2jATR1-23" vertex="1">
          <mxGeometry y="92" width="230" height="26" as="geometry" />
        </mxCell>
        <mxCell id="6dYusDWklably0Wr-_sq-52" value="- passwort: String" style="text;strokeColor=none;fillColor=none;align=left;verticalAlign=top;spacingLeft=4;spacingRight=4;overflow=hidden;rotatable=0;points=[[0,0.5],[1,0.5]];portConstraint=eastwest;" parent="HfCsK1fA1GeoR-2jATR1-23" vertex="1">
          <mxGeometry y="118" width="230" height="26" as="geometry" />
        </mxCell>
        <mxCell id="HfCsK1fA1GeoR-2jATR1-27" value="" style="line;strokeWidth=1;fillColor=none;align=left;verticalAlign=middle;spacingTop=-1;spacingLeft=3;spacingRight=3;rotatable=0;labelPosition=right;points=[];portConstraint=eastwest;strokeColor=inherit;" parent="HfCsK1fA1GeoR-2jATR1-23" vertex="1">
          <mxGeometry y="144" width="230" height="8" as="geometry" />
        </mxCell>
        <mxCell id="HfCsK1fA1GeoR-2jATR1-28" value="+ equals(Object obj): boolean" style="text;strokeColor=none;fillColor=none;align=left;verticalAlign=top;spacingLeft=4;spacingRight=4;overflow=hidden;rotatable=0;points=[[0,0.5],[1,0.5]];portConstraint=eastwest;" parent="HfCsK1fA1GeoR-2jATR1-23" vertex="1">
          <mxGeometry y="152" width="230" height="26" as="geometry" />
        </mxCell>
        <mxCell id="srKQBvNYtge3SuWGFt8Q-18" value="+ gibVorname(): String" style="text;strokeColor=none;fillColor=none;align=left;verticalAlign=top;spacingLeft=4;spacingRight=4;overflow=hidden;rotatable=0;points=[[0,0.5],[1,0.5]];portConstraint=eastwest;" parent="HfCsK1fA1GeoR-2jATR1-23" vertex="1">
          <mxGeometry y="178" width="230" height="26" as="geometry" />
        </mxCell>
        <mxCell id="6dYusDWklably0Wr-_sq-53" value="+ gibName(): String" style="text;strokeColor=none;fillColor=none;align=left;verticalAlign=top;spacingLeft=4;spacingRight=4;overflow=hidden;rotatable=0;points=[[0,0.5],[1,0.5]];portConstraint=eastwest;" parent="HfCsK1fA1GeoR-2jATR1-23" vertex="1">
          <mxGeometry y="204" width="230" height="26" as="geometry" />
        </mxCell>
        <mxCell id="6dYusDWklably0Wr-_sq-54" value="+ gibBenutzername(): String" style="text;strokeColor=none;fillColor=none;align=left;verticalAlign=top;spacingLeft=4;spacingRight=4;overflow=hidden;rotatable=0;points=[[0,0.5],[1,0.5]];portConstraint=eastwest;" parent="HfCsK1fA1GeoR-2jATR1-23" vertex="1">
          <mxGeometry y="230" width="230" height="26" as="geometry" />
        </mxCell>
        <mxCell id="6dYusDWklably0Wr-_sq-55" value="+ gibPasswort(): String" style="text;strokeColor=none;fillColor=none;align=left;verticalAlign=top;spacingLeft=4;spacingRight=4;overflow=hidden;rotatable=0;points=[[0,0.5],[1,0.5]];portConstraint=eastwest;" parent="HfCsK1fA1GeoR-2jATR1-23" vertex="1">
          <mxGeometry y="256" width="230" height="26" as="geometry" />
        </mxCell>
        <mxCell id="6dYusDWklably0Wr-_sq-56" value="+ setzePasswort(String passwort): void" style="text;strokeColor=none;fillColor=none;align=left;verticalAlign=top;spacingLeft=4;spacingRight=4;overflow=hidden;rotatable=0;points=[[0,0.5],[1,0.5]];portConstraint=eastwest;" parent="HfCsK1fA1GeoR-2jATR1-23" vertex="1">
          <mxGeometry y="282" width="230" height="26" as="geometry" />
        </mxCell>
        <mxCell id="HfCsK1fA1GeoR-2jATR1-32" value="&lt;&lt;interface&gt;&gt;&#xa;Node" style="swimlane;fontStyle=1;align=center;verticalAlign=top;childLayout=stackLayout;horizontal=1;startSize=40;horizontalStack=0;resizeParent=1;resizeParentMax=0;resizeLast=0;collapsible=1;marginBottom=0;" parent="1" vertex="1">
          <mxGeometry x="241" y="1000" width="240" height="178" as="geometry" />
        </mxCell>
        <mxCell id="HfCsK1fA1GeoR-2jATR1-34" value="" style="line;strokeWidth=1;fillColor=none;align=left;verticalAlign=middle;spacingTop=-1;spacingLeft=3;spacingRight=3;rotatable=0;labelPosition=right;points=[];portConstraint=eastwest;strokeColor=inherit;" parent="HfCsK1fA1GeoR-2jATR1-32" vertex="1">
          <mxGeometry y="40" width="240" height="8" as="geometry" />
        </mxCell>
        <mxCell id="HfCsK1fA1GeoR-2jATR1-35" value="+ einfuegen(Benutzer inhalt): Node" style="text;strokeColor=none;fillColor=none;align=left;verticalAlign=top;spacingLeft=4;spacingRight=4;overflow=hidden;rotatable=0;points=[[0,0.5],[1,0.5]];portConstraint=eastwest;" parent="HfCsK1fA1GeoR-2jATR1-32" vertex="1">
          <mxGeometry y="48" width="240" height="26" as="geometry" />
        </mxCell>
        <mxCell id="6dYusDWklably0Wr-_sq-46" value="+ loeschen(String benutzername): void" style="text;strokeColor=none;fillColor=none;align=left;verticalAlign=top;spacingLeft=4;spacingRight=4;overflow=hidden;rotatable=0;points=[[0,0.5],[1,0.5]];portConstraint=eastwest;" parent="HfCsK1fA1GeoR-2jATR1-32" vertex="1">
          <mxGeometry y="74" width="240" height="26" as="geometry" />
        </mxCell>
        <mxCell id="6dYusDWklably0Wr-_sq-47" value="+ gibInhalt(): Benutzer" style="text;strokeColor=none;fillColor=none;align=left;verticalAlign=top;spacingLeft=4;spacingRight=4;overflow=hidden;rotatable=0;points=[[0,0.5],[1,0.5]];portConstraint=eastwest;" parent="HfCsK1fA1GeoR-2jATR1-32" vertex="1">
          <mxGeometry y="100" width="240" height="26" as="geometry" />
        </mxCell>
        <mxCell id="6dYusDWklably0Wr-_sq-48" value="+ gibNaechster: Node" style="text;strokeColor=none;fillColor=none;align=left;verticalAlign=top;spacingLeft=4;spacingRight=4;overflow=hidden;rotatable=0;points=[[0,0.5],[1,0.5]];portConstraint=eastwest;" parent="HfCsK1fA1GeoR-2jATR1-32" vertex="1">
          <mxGeometry y="126" width="240" height="26" as="geometry" />
        </mxCell>
        <mxCell id="6dYusDWklably0Wr-_sq-49" value="+ benutzerlisteAusgeben(): void" style="text;strokeColor=none;fillColor=none;align=left;verticalAlign=top;spacingLeft=4;spacingRight=4;overflow=hidden;rotatable=0;points=[[0,0.5],[1,0.5]];portConstraint=eastwest;" parent="HfCsK1fA1GeoR-2jATR1-32" vertex="1">
          <mxGeometry y="152" width="240" height="26" as="geometry" />
        </mxCell>
        <mxCell id="6dYusDWklably0Wr-_sq-1" value="BenutzerSerializer" style="swimlane;fontStyle=1;align=center;verticalAlign=top;childLayout=stackLayout;horizontal=1;startSize=26;horizontalStack=0;resizeParent=1;resizeParentMax=0;resizeLast=0;collapsible=1;marginBottom=0;whiteSpace=wrap;html=1;" parent="1" vertex="1">
          <mxGeometry x="882" y="640" width="240" height="78" as="geometry" />
        </mxCell>
        <mxCell id="6dYusDWklably0Wr-_sq-2" value="+ speichern(Benutzerliste l): void" style="text;strokeColor=none;fillColor=none;align=left;verticalAlign=top;spacingLeft=4;spacingRight=4;overflow=hidden;rotatable=0;points=[[0,0.5],[1,0.5]];portConstraint=eastwest;whiteSpace=wrap;html=1;" parent="6dYusDWklably0Wr-_sq-1" vertex="1">
          <mxGeometry y="26" width="240" height="26" as="geometry" />
        </mxCell>
        <mxCell id="6dYusDWklably0Wr-_sq-3" value="+ laden(): Benutzerliste" style="text;strokeColor=none;fillColor=none;align=left;verticalAlign=top;spacingLeft=4;spacingRight=4;overflow=hidden;rotatable=0;points=[[0,0.5],[1,0.5]];portConstraint=eastwest;whiteSpace=wrap;html=1;" parent="6dYusDWklably0Wr-_sq-1" vertex="1">
          <mxGeometry y="52" width="240" height="26" as="geometry" />
        </mxCell>
        <mxCell id="6dYusDWklably0Wr-_sq-6" style="edgeStyle=orthogonalEdgeStyle;rounded=0;orthogonalLoop=1;jettySize=auto;html=1;entryX=0.002;entryY=0.567;entryDx=0;entryDy=0;startArrow=none;startFill=0;endArrow=none;endFill=0;entryPerimeter=0;" parent="1" target="6dYusDWklably0Wr-_sq-2" edge="1">
          <mxGeometry relative="1" as="geometry">
            <mxPoint x="640" y="680" as="sourcePoint" />
          </mxGeometry>
        </mxCell>
        <mxCell id="6dYusDWklably0Wr-_sq-30" value="1" style="text;strokeColor=none;align=center;fillColor=none;html=1;verticalAlign=middle;whiteSpace=wrap;rounded=0;" parent="1" vertex="1">
          <mxGeometry x="361" y="760" width="40" height="30" as="geometry" />
        </mxCell>
        <mxCell id="6dYusDWklably0Wr-_sq-31" value="1" style="text;strokeColor=none;align=center;fillColor=none;html=1;verticalAlign=middle;whiteSpace=wrap;rounded=0;" parent="1" vertex="1">
          <mxGeometry x="364.5" y="970" width="33" height="30" as="geometry" />
        </mxCell>
        <mxCell id="6dYusDWklably0Wr-_sq-32" value="erster &amp;gt;" style="text;strokeColor=none;align=center;fillColor=none;html=1;verticalAlign=middle;whiteSpace=wrap;rounded=0;rotation=90;" parent="1" vertex="1">
          <mxGeometry x="351" y="890" width="60" height="30" as="geometry" />
        </mxCell>
        <mxCell id="6dYusDWklably0Wr-_sq-34" style="edgeStyle=orthogonalEdgeStyle;rounded=0;orthogonalLoop=1;jettySize=auto;html=1;endArrow=block;endFill=0;endSize=16;dashed=1;entryX=1.004;entryY=0.782;entryDx=0;entryDy=0;entryPerimeter=0;" parent="1" source="HfCsK1fA1GeoR-2jATR1-17" edge="1" target="6dYusDWklably0Wr-_sq-47">
          <mxGeometry relative="1" as="geometry">
            <mxPoint x="681" y="1070" as="sourcePoint" />
            <mxPoint x="491" y="1121" as="targetPoint" />
            <Array as="points">
              <mxPoint x="681" y="1120" />
            </Array>
          </mxGeometry>
        </mxCell>
        <mxCell id="6dYusDWklably0Wr-_sq-36" value="inhalt &amp;gt;" style="text;html=1;align=center;verticalAlign=middle;resizable=0;points=[];autosize=1;strokeColor=none;fillColor=none;rotation=90;" parent="1" vertex="1">
          <mxGeometry x="711" y="1300" width="60" height="30" as="geometry" />
        </mxCell>
        <mxCell id="6dYusDWklably0Wr-_sq-37" value="1" style="text;html=1;align=center;verticalAlign=middle;resizable=0;points=[];autosize=1;strokeColor=none;fillColor=none;" parent="1" vertex="1">
          <mxGeometry x="726" y="1360" width="30" height="30" as="geometry" />
        </mxCell>
        <mxCell id="6dYusDWklably0Wr-_sq-40" value="1" style="text;html=1;align=center;verticalAlign=middle;resizable=0;points=[];autosize=1;strokeColor=none;fillColor=none;" parent="1" vertex="1">
          <mxGeometry x="1721" y="1270" width="30" height="30" as="geometry" />
        </mxCell>
        <mxCell id="6dYusDWklably0Wr-_sq-41" value="1" style="text;html=1;align=center;verticalAlign=middle;resizable=0;points=[];autosize=1;strokeColor=none;fillColor=none;" parent="1" vertex="1">
          <mxGeometry x="726" y="1260" width="30" height="30" as="geometry" />
        </mxCell>
        <mxCell id="6dYusDWklably0Wr-_sq-43" value="1" style="text;html=1;align=center;verticalAlign=middle;resizable=0;points=[];autosize=1;strokeColor=none;fillColor=none;" parent="1" vertex="1">
          <mxGeometry x="593" y="1187" width="30" height="30" as="geometry" />
        </mxCell>
        <mxCell id="6dYusDWklably0Wr-_sq-44" value="1" style="text;html=1;align=center;verticalAlign=middle;resizable=0;points=[];autosize=1;strokeColor=none;fillColor=none;" parent="1" vertex="1">
          <mxGeometry x="441" y="1178" width="30" height="30" as="geometry" />
        </mxCell>
        <mxCell id="6dYusDWklably0Wr-_sq-45" value="&amp;lt;naechster" style="text;html=1;align=center;verticalAlign=middle;resizable=0;points=[];autosize=1;strokeColor=none;fillColor=none;" parent="1" vertex="1">
          <mxGeometry x="501" y="1190" width="80" height="30" as="geometry" />
        </mxCell>
        <mxCell id="_23D0S8PXt5TGV4Vy99F-1" value="GUI" style="swimlane;fontStyle=1;align=center;verticalAlign=top;childLayout=stackLayout;horizontal=1;startSize=26;horizontalStack=0;resizeParent=1;resizeParentMax=0;resizeLast=0;collapsible=1;marginBottom=0;whiteSpace=wrap;html=1;" parent="1" vertex="1">
          <mxGeometry x="1122" y="160" width="239" height="86" as="geometry" />
        </mxCell>
        <mxCell id="_23D0S8PXt5TGV4Vy99F-2" value="- &lt;u&gt;pickedDate: String {readOnly}&lt;/u&gt;" style="text;strokeColor=none;fillColor=none;align=left;verticalAlign=top;spacingLeft=4;spacingRight=4;overflow=hidden;rotatable=0;points=[[0,0.5],[1,0.5]];portConstraint=eastwest;whiteSpace=wrap;html=1;" parent="_23D0S8PXt5TGV4Vy99F-1" vertex="1">
          <mxGeometry y="26" width="239" height="26" as="geometry" />
        </mxCell>
        <mxCell id="_23D0S8PXt5TGV4Vy99F-3" value="" style="line;strokeWidth=1;fillColor=none;align=left;verticalAlign=middle;spacingTop=-1;spacingLeft=3;spacingRight=3;rotatable=0;labelPosition=right;points=[];portConstraint=eastwest;strokeColor=inherit;" parent="_23D0S8PXt5TGV4Vy99F-1" vertex="1">
          <mxGeometry y="52" width="239" height="8" as="geometry" />
        </mxCell>
        <mxCell id="_23D0S8PXt5TGV4Vy99F-4" value="+ actionPerformed(ActionEvent): void" style="text;strokeColor=none;fillColor=none;align=left;verticalAlign=top;spacingLeft=4;spacingRight=4;overflow=hidden;rotatable=0;points=[[0,0.5],[1,0.5]];portConstraint=eastwest;whiteSpace=wrap;html=1;" parent="_23D0S8PXt5TGV4Vy99F-1" vertex="1">
          <mxGeometry y="60" width="239" height="26" as="geometry" />
        </mxCell>
        <mxCell id="_23D0S8PXt5TGV4Vy99F-7" value="1" style="text;html=1;align=center;verticalAlign=middle;resizable=0;points=[];autosize=1;strokeColor=none;fillColor=none;" parent="1" vertex="1">
          <mxGeometry x="563" y="390" width="30" height="30" as="geometry" />
        </mxCell>
        <mxCell id="_23D0S8PXt5TGV4Vy99F-10" value="1" style="text;html=1;align=center;verticalAlign=middle;resizable=0;points=[];autosize=1;strokeColor=none;fillColor=none;" parent="1" vertex="1">
          <mxGeometry x="1251" y="390" width="30" height="30" as="geometry" />
        </mxCell>
        <mxCell id="_23D0S8PXt5TGV4Vy99F-11" value="1" style="text;html=1;align=center;verticalAlign=middle;resizable=0;points=[];autosize=1;strokeColor=none;fillColor=none;" parent="1" vertex="1">
          <mxGeometry x="1251" y="260" width="30" height="30" as="geometry" />
        </mxCell>
        <mxCell id="_23D0S8PXt5TGV4Vy99F-12" value="1" style="text;html=1;align=center;verticalAlign=middle;resizable=0;points=[];autosize=1;strokeColor=none;fillColor=none;" parent="1" vertex="1">
          <mxGeometry x="1061" y="230" width="30" height="30" as="geometry" />
        </mxCell>
        <mxCell id="_23D0S8PXt5TGV4Vy99F-13" value="" style="endArrow=open;startArrow=cross;endFill=0;startFill=0;endSize=8;startSize=10;html=1;rounded=0;entryX=0.16;entryY=-0.006;entryDx=0;entryDy=0;entryPerimeter=0;" parent="1" source="_23D0S8PXt5TGV4Vy99F-1" target="GG09bQPDJOTjV2dfAbOx-7" edge="1">
          <mxGeometry width="160" relative="1" as="geometry">
            <mxPoint x="461" y="410" as="sourcePoint" />
            <mxPoint x="621" y="410" as="targetPoint" />
          </mxGeometry>
        </mxCell>
        <mxCell id="_23D0S8PXt5TGV4Vy99F-14" value="" style="endArrow=open;startArrow=cross;endFill=0;startFill=0;endSize=8;startSize=10;html=1;rounded=0;entryX=0.848;entryY=-0.005;entryDx=0;entryDy=0;entryPerimeter=0;exitX=0.105;exitY=1.124;exitDx=0;exitDy=0;exitPerimeter=0;" parent="1" source="_23D0S8PXt5TGV4Vy99F-4" target="HfCsK1fA1GeoR-2jATR1-1" edge="1">
          <mxGeometry width="160" relative="1" as="geometry">
            <mxPoint x="461" y="410" as="sourcePoint" />
            <mxPoint x="621" y="410" as="targetPoint" />
          </mxGeometry>
        </mxCell>
        <mxCell id="srKQBvNYtge3SuWGFt8Q-6" value="Kalender" style="swimlane;fontStyle=1;align=center;verticalAlign=top;childLayout=stackLayout;horizontal=1;startSize=26;horizontalStack=0;resizeParent=1;resizeParentMax=0;resizeLast=0;collapsible=1;marginBottom=0;whiteSpace=wrap;html=1;" parent="1" vertex="1">
          <mxGeometry x="1041" y="436" width="400" height="86" as="geometry" />
        </mxCell>
        <mxCell id="srKQBvNYtge3SuWGFt8Q-8" value="" style="line;strokeWidth=1;fillColor=none;align=left;verticalAlign=middle;spacingTop=-1;spacingLeft=3;spacingRight=3;rotatable=0;labelPosition=right;points=[];portConstraint=eastwest;strokeColor=inherit;" parent="srKQBvNYtge3SuWGFt8Q-6" vertex="1">
          <mxGeometry y="26" width="400" height="8" as="geometry" />
        </mxCell>
        <mxCell id="srKQBvNYtge3SuWGFt8Q-9" value="+ displayDate(Reservierungsliste reservierungsliste, Koffer koffer): void" style="text;strokeColor=none;fillColor=none;align=left;verticalAlign=top;spacingLeft=4;spacingRight=4;overflow=hidden;rotatable=0;points=[[0,0.5],[1,0.5]];portConstraint=eastwest;whiteSpace=wrap;html=1;" parent="srKQBvNYtge3SuWGFt8Q-6" vertex="1">
          <mxGeometry y="34" width="400" height="26" as="geometry" />
        </mxCell>
        <mxCell id="srKQBvNYtge3SuWGFt8Q-10" value="+ setPickesDate(): String" style="text;strokeColor=none;fillColor=none;align=left;verticalAlign=top;spacingLeft=4;spacingRight=4;overflow=hidden;rotatable=0;points=[[0,0.5],[1,0.5]];portConstraint=eastwest;whiteSpace=wrap;html=1;" parent="srKQBvNYtge3SuWGFt8Q-6" vertex="1">
          <mxGeometry y="60" width="400" height="26" as="geometry" />
        </mxCell>
        <mxCell id="kT-lGZq59A2PqVAVqNMU-3" value="" style="endArrow=block;endSize=16;endFill=0;html=1;rounded=0;entryX=0.106;entryY=-0.033;entryDx=0;entryDy=0;dashed=1;exitX=0.849;exitY=1.206;exitDx=0;exitDy=0;entryPerimeter=0;exitPerimeter=0;" parent="1" source="6dYusDWklably0Wr-_sq-3" target="wRzsIxWEd2h5d38toLy1-4" edge="1">
          <mxGeometry width="160" relative="1" as="geometry">
            <mxPoint x="1177" y="578" as="sourcePoint" />
            <mxPoint x="1161" y="728" as="targetPoint" />
          </mxGeometry>
        </mxCell>
        <mxCell id="kT-lGZq59A2PqVAVqNMU-4" value="" style="endArrow=block;endSize=16;endFill=0;html=1;rounded=0;entryX=0.169;entryY=1.01;entryDx=0;entryDy=0;dashed=1;exitX=0.5;exitY=0;exitDx=0;exitDy=0;entryPerimeter=0;" parent="1" source="HfCsK1fA1GeoR-2jATR1-17" target="wRzsIxWEd2h5d38toLy1-4" edge="1">
          <mxGeometry width="160" relative="1" as="geometry">
            <mxPoint x="1187" y="588" as="sourcePoint" />
            <mxPoint x="1171" y="738" as="targetPoint" />
          </mxGeometry>
        </mxCell>
        <mxCell id="kT-lGZq59A2PqVAVqNMU-5" value="" style="endArrow=block;endSize=16;endFill=0;html=1;rounded=0;entryX=0;entryY=0.5;entryDx=0;entryDy=0;dashed=1;exitX=1;exitY=0.25;exitDx=0;exitDy=0;" parent="1" source="HfCsK1fA1GeoR-2jATR1-21" target="wRzsIxWEd2h5d38toLy1-4" edge="1">
          <mxGeometry width="160" relative="1" as="geometry">
            <mxPoint x="1197" y="598" as="sourcePoint" />
            <mxPoint x="1181" y="748" as="targetPoint" />
            <Array as="points" />
          </mxGeometry>
        </mxCell>
        <mxCell id="-Z-XoY6Hy67f1oEPYJGS-1" value="" style="endArrow=diamondThin;endFill=0;endSize=24;html=1;rounded=0;exitX=0.833;exitY=1.077;exitDx=0;exitDy=0;exitPerimeter=0;" edge="1" parent="1" source="6dYusDWklably0Wr-_sq-49">
          <mxGeometry width="160" relative="1" as="geometry">
            <mxPoint x="521" y="1214.5" as="sourcePoint" />
            <mxPoint x="641" y="1215" as="targetPoint" />
            <Array as="points">
              <mxPoint x="441" y="1215" />
            </Array>
          </mxGeometry>
        </mxCell>
        <mxCell id="-Z-XoY6Hy67f1oEPYJGS-4" value="" style="endArrow=open;endSize=12;dashed=1;html=1;rounded=0;entryX=0.517;entryY=0.001;entryDx=0;entryDy=0;exitX=0.536;exitY=0.996;exitDx=0;exitDy=0;exitPerimeter=0;entryPerimeter=0;" edge="1" parent="1" source="wRzsIxWEd2h5d38toLy1-11" target="GG09bQPDJOTjV2dfAbOx-24">
          <mxGeometry width="160" relative="1" as="geometry">
            <mxPoint x="1636" y="79" as="sourcePoint" />
            <mxPoint x="1871" y="70" as="targetPoint" />
          </mxGeometry>
        </mxCell>
        <mxCell id="-Z-XoY6Hy67f1oEPYJGS-5" value="" style="endArrow=open;endSize=12;dashed=1;html=1;rounded=0;entryX=0.5;entryY=0;entryDx=0;entryDy=0;exitX=0.462;exitY=0.997;exitDx=0;exitDy=0;exitPerimeter=0;" edge="1" parent="1" source="6dYusDWklably0Wr-_sq-19" target="HfCsK1fA1GeoR-2jATR1-32">
          <mxGeometry width="160" relative="1" as="geometry">
            <mxPoint x="361" y="790" as="sourcePoint" />
            <mxPoint x="261" y="1300" as="targetPoint" />
          </mxGeometry>
        </mxCell>
        <mxCell id="-Z-XoY6Hy67f1oEPYJGS-12" value="" style="endArrow=open;startArrow=cross;endFill=0;startFill=0;endSize=8;startSize=10;html=1;rounded=0;entryX=0.5;entryY=0;entryDx=0;entryDy=0;" edge="1" parent="1" target="srKQBvNYtge3SuWGFt8Q-6">
          <mxGeometry width="160" relative="1" as="geometry">
            <mxPoint x="1241" y="246" as="sourcePoint" />
            <mxPoint x="1804" y="440" as="targetPoint" />
          </mxGeometry>
        </mxCell>
        <mxCell id="-Z-XoY6Hy67f1oEPYJGS-13" value="" style="endArrow=diamondThin;endFill=0;endSize=24;html=1;rounded=0;entryX=1;entryY=0.5;entryDx=0;entryDy=0;exitX=0.121;exitY=1.051;exitDx=0;exitDy=0;exitPerimeter=0;" edge="1" parent="1" source="6dYusDWklably0Wr-_sq-65" target="wRzsIxWEd2h5d38toLy1-22">
          <mxGeometry width="160" relative="1" as="geometry">
            <mxPoint x="1999" y="1238" as="sourcePoint" />
            <mxPoint x="2011" y="1270" as="targetPoint" />
            <Array as="points">
              <mxPoint x="1999" y="1260" />
            </Array>
          </mxGeometry>
        </mxCell>
        <mxCell id="-Z-XoY6Hy67f1oEPYJGS-14" value="1" style="text;html=1;align=center;verticalAlign=middle;resizable=0;points=[];autosize=1;strokeColor=none;fillColor=none;" vertex="1" parent="1">
          <mxGeometry x="2001" y="1230" width="30" height="30" as="geometry" />
        </mxCell>
        <mxCell id="-Z-XoY6Hy67f1oEPYJGS-15" value="1" style="text;html=1;align=center;verticalAlign=middle;resizable=0;points=[];autosize=1;strokeColor=none;fillColor=none;" vertex="1" parent="1">
          <mxGeometry x="1811" y="1260" width="30" height="30" as="geometry" />
        </mxCell>
      </root>
    </mxGraphModel>
  </diagram>
</mxfile>
